<?xml version="1.0" standalone="no"?>
<!DOCTYPE svg PUBLIC "-//W3C//DTD SVG 20010904//EN"
 "http://www.w3.org/TR/2001/REC-SVG-20010904/DTD/svg10.dtd">
<svg version="1.0" xmlns="http://www.w3.org/2000/svg"
 width="150.000000pt" height="150.000000pt" viewBox="0 0 150.000000 150.000000"
 preserveAspectRatio="xMidYMid meet">

<g transform="translate(0.000000,150.000000) scale(0.100000,-0.100000)"
fill="#000000" stroke="none">
<path d="M761 1274 c-12 -15 -26 -44 -33 -66 -7 -25 -14 -34 -19 -26 -6 10 -9
9 -13 -2 -3 -8 -23 -65 -46 -126 -42 -116 -61 -192 -41 -164 18 25 13 -5 -13
-84 -30 -89 -46 -203 -26 -191 9 6 12 4 8 -7 -3 -8 -9 -45 -13 -82 l-8 -68
-49 -22 c-27 -12 -46 -24 -43 -28 3 -3 -13 -15 -37 -27 -37 -18 -40 -21 -18
-22 l25 -1 -27 -11 c-16 -6 -28 -14 -28 -19 0 -10 3 -10 84 7 38 8 71 14 72
12 2 -1 4 -24 6 -50 2 -26 4 -47 6 -47 1 0 14 24 27 52 14 29 23 43 21 30 -6
-32 11 -17 24 22 8 25 19 35 47 44 20 6 40 9 45 6 13 -8 198 36 240 57 21 11
53 19 73 19 20 0 34 4 30 9 -3 6 19 11 52 13 l58 3 -57 28 c-32 16 -72 31 -90
33 -49 8 -309 -34 -330 -53 -10 -9 -21 -14 -23 -11 -3 3 6 54 21 114 15 60 27
118 26 129 -3 36 31 180 38 160 7 -21 25 53 40 165 5 41 12 97 16 124 7 46 6
48 -14 41 -24 -7 -27 1 -12 39 12 33 7 33 -19 0z"/>
</g>
</svg>
