<svg xmlns="http://www.w3.org/2000/svg" style="display: none;">
	<symbol id="html-icon" viewBox="0 0 30 30">
		<path
			d="m3 2 1.578 17.824L12 22l7.467-2.175L21 2H3Zm14.049 6.048H9.075l.172 2.016h7.697l-.626 6.565-4.246 1.381-4.281-1.455-.288-2.932h2.024l.16 1.411 2.4.815 2.346-.763.297-3.005H7.416l-.562-6.05h10.412l-.217 2.017Z" />
	</symbol>
	<symbol id="css-icon" viewBox="0 0 30 30">
		<path
			d="m3 2 1.578 17.834L12 22l7.468-2.165L21 2H3Zm13.3 14.722-4.293 1.204H12l-4.297-1.204-.297-3.167h2.108l.15 1.526 2.335.639 2.34-.64.245-3.05h-7.27l-.187-2.006h7.64l.174-2.006H6.924l-.176-2.006h10.506l-.954 10.71Z" />
	</symbol>
	<symbol id="git-icon" viewBox="0 0 30 30">
		<path fill-rule="evenodd"
			d="M12.006 2a9.847 9.847 0 0 0-6.484 2.44 10.32 10.32 0 0 0-3.393 6.17 10.48 10.48 0 0 0 1.317 6.955 10.045 10.045 0 0 0 5.4 4.418c.504.095.683-.223.683-.494 0-.245-.01-1.052-.014-1.908-2.78.62-3.366-1.21-3.366-1.21a2.711 2.711 0 0 0-1.11-1.5c-.907-.637.07-.621.07-.621.317.044.62.163.885.346.266.183.487.426.647.71.135.253.318.476.538.655a2.079 2.079 0 0 0 2.37.196c.045-.52.27-1.006.635-1.37-2.219-.259-4.554-1.138-4.554-5.07a4.022 4.022 0 0 1 1.031-2.75 3.77 3.77 0 0 1 .096-2.713s.839-.275 2.749 1.05a9.26 9.26 0 0 1 5.004 0c1.906-1.325 2.74-1.05 2.74-1.05.37.858.406 1.828.101 2.713a4.017 4.017 0 0 1 1.029 2.75c0 3.939-2.339 4.805-4.564 5.058a2.471 2.471 0 0 1 .679 1.897c0 1.372-.012 2.477-.012 2.814 0 .272.18.592.687.492a10.05 10.05 0 0 0 5.388-4.421 10.473 10.473 0 0 0 1.313-6.948 10.32 10.32 0 0 0-3.39-6.165A9.847 9.847 0 0 0 12.007 2Z"
			clip-rule="evenodd" />
	</symbol>
	<symbol id="js-icon" viewBox="0 0 35 35">
		<path
			d="M24,4H6C4.895,4,4,4.895,4,6v18c0,1.105,0.895,2,2,2h18c1.105,0,2-0.895,2-2V6C26,4.895,25.105,4,24,4z M15,20.38 c0,1.777-1.09,2.773-2.9,2.773c-1.788,0-2.927-1.045-2.927-2.735h1.937c0.005,0.627,0.379,1.023,0.957,1.023 c0.594,0,0.913-0.374,0.913-1.078v-5.365H15V20.38z M20.481,23.153c-2.009,0-3.273-0.946-3.307-2.476H19.1 c0.049,0.578,0.626,0.946,1.463,0.946c0.754,0,1.272-0.363,1.272-0.886c0-0.44-0.347-0.677-1.255-0.858l-1.045-0.209 c-1.453-0.275-2.201-1.067-2.201-2.316c0-1.552,1.244-2.57,3.158-2.57c1.86,0,3.147,1.007,3.18,2.476h-1.865 c-0.044-0.561-0.578-0.952-1.289-0.952c-0.709,0-1.176,0.336-1.176,0.864c0,0.435,0.352,0.688,1.188,0.853l1.022,0.198 c1.569,0.303,2.273,1.012,2.273,2.272C23.826,22.152,22.561,23.153,20.481,23.153z">
		</path>
	</symbol>
	<symbol id="react-icon" viewBox="0 0 35 35">
		<path
			d="M 10.679688 4.1816406 C 10.068687 4.1816406 9.502 4.3184219 9 4.6074219 C 7.4311297 5.5132122 6.8339651 7.7205462 7.1503906 10.46875 C 4.6127006 11.568833 3 13.188667 3 15 C 3 16.811333 4.6127006 18.431167 7.1503906 19.53125 C 6.8341285 22.279346 7.4311297 24.486788 9 25.392578 C 9.501 25.681578 10.067687 25.818359 10.679688 25.818359 C 11.982314 25.818359 13.48785 25.164589 15 24.042969 C 16.512282 25.164589 18.01964 25.818359 19.322266 25.818359 C 19.933266 25.818359 20.499953 25.681578 21.001953 25.392578 C 22.570814 24.486793 23.167976 22.279432 22.851562 19.53125 C 25.388297 18.431178 27 16.81094 27 15 C 27 13.188667 25.387299 11.568833 22.849609 10.46875 C 23.165872 7.7206538 22.56887 5.5132122 21 4.6074219 C 20.499 4.3174219 19.932312 4.1816406 19.320312 4.1816406 C 18.017686 4.1816406 16.51215 4.8354109 15 5.9570312 C 13.487763 4.8354109 11.981863 4.1816406 10.679688 4.1816406 z M 10.679688 5.9316406 C 11.461321 5.9316406 12.49496 6.3472486 13.617188 7.1171875 C 12.95737 7.7398717 12.311153 8.4479321 11.689453 9.2363281 C 10.681079 9.3809166 9.7303472 9.5916908 8.8496094 9.8554688 C 8.8448793 9.7943902 8.8336776 9.7303008 8.8300781 9.6699219 C 8.7230781 7.8899219 9.114 6.5630469 9.875 6.1230469 C 10.1 5.9930469 10.362688 5.9316406 10.679688 5.9316406 z M 19.320312 5.9316406 C 19.636312 5.9316406 19.9 5.9930469 20.125 6.1230469 C 20.886 6.5620469 21.276922 7.8899219 21.169922 9.6699219 C 21.166295 9.7303008 21.155145 9.7943902 21.150391 9.8554688 C 20.2691 9.5915252 19.317669 9.3809265 18.308594 9.2363281 C 17.686902 8.4480417 17.042616 7.7397993 16.382812 7.1171875 C 17.504962 6.3473772 18.539083 5.9316406 19.320312 5.9316406 z M 15 8.2285156 C 15.27108 8.4752506 15.540266 8.7360345 15.8125 9.0214844 C 15.542718 9.012422 15.274373 9 15 9 C 14.726286 9 14.458598 9.0124652 14.189453 9.0214844 C 14.461446 8.7363308 14.729174 8.4750167 15 8.2285156 z M 15 10.75 C 15.828688 10.75 16.614128 10.796321 17.359375 10.876953 C 17.813861 11.494697 18.261774 12.147811 18.681641 12.875 C 19.084074 13.572033 19.439938 14.285488 19.753906 15 C 19.439896 15.714942 19.084316 16.429502 18.681641 17.126953 C 18.263078 17.852044 17.816279 18.500949 17.363281 19.117188 C 16.591711 19.201607 15.800219 19.25 15 19.25 C 14.171312 19.25 13.385872 19.203679 12.640625 19.123047 C 12.186139 18.505303 11.738226 17.854142 11.318359 17.126953 C 10.915684 16.429502 10.560194 15.714942 10.246094 15 C 10.559972 14.285488 10.915926 13.572033 11.318359 12.875 C 11.737083 12.149909 12.183612 11.499051 12.636719 10.882812 C 13.408289 10.798393 14.199781 10.75 15 10.75 z M 19.746094 11.291016 C 20.142841 11.386804 20.524253 11.490209 20.882812 11.605469 C 20.801579 11.97252 20.702235 12.346608 20.589844 12.724609 C 20.461164 12.483141 20.336375 12.240903 20.197266 12 C 20.054139 11.752196 19.895244 11.529558 19.746094 11.291016 z M 10.251953 11.292969 C 10.103305 11.530776 9.9454023 11.752991 9.8027344 12 C 9.6636666 12.240944 9.5387971 12.483106 9.4101562 12.724609 C 9.29751 12.345829 9.1965499 11.971295 9.1152344 11.603516 C 9.4803698 11.48815 9.86083 11.385986 10.251953 11.292969 z M 7.46875 12.246094 C 7.6794464 13.135714 7.9717297 14.057918 8.3476562 14.998047 C 7.9725263 15.935943 7.6814729 16.856453 7.4707031 17.744141 C 5.7292327 16.903203 4.75 15.856373 4.75 15 C 4.75 14.121 5.701875 13.119266 7.296875 12.322266 C 7.3513169 12.295031 7.4131225 12.272692 7.46875 12.246094 z M 22.529297 12.255859 C 24.270767 13.096797 25.25 14.143627 25.25 15 C 25.25 15.879 24.298125 16.880734 22.703125 17.677734 C 22.648683 17.704969 22.586877 17.727308 22.53125 17.753906 C 22.32043 16.863764 22.030541 15.940699 21.654297 15 C 22.028977 14.062913 22.318703 13.142804 22.529297 12.255859 z M 15 13 C 13.895 13 13 13.895 13 15 C 13 16.105 13.895 17 15 17 C 16.105 17 17 16.105 17 15 C 17 13.895 16.105 13 15 13 z M 9.4101562 17.275391 C 9.5388794 17.516948 9.6655262 17.759008 9.8046875 18 C 9.9476585 18.247625 10.104915 18.470608 10.253906 18.708984 C 9.857159 18.613196 9.4757466 18.509791 9.1171875 18.394531 C 9.1984813 18.02725 9.2976676 17.653633 9.4101562 17.275391 z M 20.589844 17.277344 C 20.702364 17.655759 20.803517 18.02905 20.884766 18.396484 C 20.51963 18.51185 20.13917 18.614014 19.748047 18.707031 C 19.896695 18.469224 20.054598 18.247009 20.197266 18 C 20.336044 17.759557 20.461449 17.518344 20.589844 17.277344 z M 8.8496094 20.144531 C 9.7309004 20.408475 10.682331 20.619073 11.691406 20.763672 C 12.313288 21.552345 12.957085 22.261935 13.617188 22.884766 C 12.495042 23.654481 11.461272 24.070312 10.679688 24.070312 C 10.363687 24.070312 10.1 24.006953 9.875 23.876953 C 9.114 23.437953 8.7230781 22.112031 8.8300781 20.332031 C 8.8337424 20.271023 8.8447938 20.206253 8.8496094 20.144531 z M 21.150391 20.144531 C 21.155182 20.206253 21.166285 20.271023 21.169922 20.332031 C 21.276922 22.112031 20.886 23.436953 20.125 23.876953 C 19.9 24.006953 19.637312 24.070313 19.320312 24.070312 C 18.538728 24.070312 17.504958 23.654609 16.382812 22.884766 C 17.042964 22.261863 17.688542 21.552454 18.310547 20.763672 C 19.318921 20.619083 20.269653 20.408309 21.150391 20.144531 z M 14.1875 20.978516 C 14.457282 20.987578 14.725627 21 15 21 C 15.274373 21 15.542718 20.987578 15.8125 20.978516 C 15.540266 21.263964 15.27108 21.524765 15 21.771484 C 14.72892 21.524749 14.459734 21.263966 14.1875 20.978516 z">
		</path>
	</symbol>
	<symbol id="gulp-icon" viewBox="0 0 40 40">
		<path
			d="M 22.154297 1 C 22.113531 1.0015781 22.081797 1.0129531 22.060547 1.0332031 L 18.345703 5.4453125 L 17.587891 8.0507812 C 17.072891 8.0337813 16.541094 8.0273438 15.996094 8.0273438 C 12.135094 8.0273437 9 8.4363594 9 8.9433594 C 9 10.153359 22.990234 10.153359 22.990234 8.9433594 C 22.990234 8.5683594 21.315391 8.2515625 18.900391 8.1015625 L 19.5 5.9570312 L 22.974609 1.7773438 L 22.980469 1.7714844 C 23.058469 1.6904844 22.906203 1.447375 22.658203 1.234375 C 22.472203 1.073875 22.276594 0.99526563 22.154297 1 z M 17.302734 9.0761719 L 17.289062 9.1171875 C 17.283062 9.1221875 17.283203 9.1287656 17.283203 9.1347656 C 17.283203 9.2097656 17.586078 9.2714844 17.955078 9.2714844 C 18.324078 9.2714844 18.628906 9.2097656 18.628906 9.1347656 L 18.640625 9.0878906 C 18.737625 9.1228906 18.791016 9.1629844 18.791016 9.2089844 C 18.791016 9.3299844 18.416219 9.4288281 17.949219 9.4238281 C 17.495219 9.4238281 17.119141 9.3319375 17.119141 9.2109375 C 17.119141 9.1589375 17.193734 9.1111719 17.302734 9.0761719 z M 22.912109 9.4199219 C 21.061109 10.406922 10.949797 10.413594 9.0917969 9.4335938 L 9.9140625 16.666016 C 10.271062 15.513016 11.173938 13.956375 12.335938 13.484375 C 12.716938 13.328375 13.103797 13.329109 13.466797 13.537109 C 13.781797 13.710109 14.048125 14.072797 14.078125 14.216797 C 14.151125 14.591797 13.957641 14.740234 13.806641 14.740234 C 13.624641 14.740234 13.485531 14.476312 13.394531 14.320312 C 13.146531 13.899313 12.771094 13.881203 12.371094 14.158203 C 11.953094 14.446203 11.589938 14.930563 11.335938 15.351562 C 11.026938 15.858562 10.766375 16.417563 10.609375 16.976562 C 10.518375 17.299563 10.435219 17.817047 10.574219 18.123047 C 10.635219 18.250047 10.725094 18.330078 10.871094 18.330078 C 11.174094 18.330078 11.614172 17.950047 11.826172 17.748047 C 12.098172 17.489047 12.449031 17.085172 12.582031 16.826172 L 12.898438 15.933594 C 13.055438 15.541594 13.496094 15.610594 13.496094 15.933594 C 13.496094 16.521594 13.273578 16.717594 12.892578 17.933594 C 12.541578 19.057594 12.431641 19.421875 12.431641 19.421875 C 12.389641 19.582875 12.225781 19.853516 12.050781 19.853516 C 11.977781 19.853516 11.924531 19.829203 11.894531 19.783203 C 11.833531 19.702203 11.839703 19.479875 11.845703 19.421875 C 11.857703 19.237875 12.226109 18.14175 12.287109 17.96875 C 12.166109 18.09575 12.039391 18.223609 11.900391 18.349609 C 11.573391 18.643609 11.047609 19.029297 10.599609 19.029297 C 10.393609 19.029297 10.261766 18.976625 10.134766 18.890625 L 10.59375 23.478516 C 10.71475 23.766516 12.966641 24.464844 15.931641 24.464844 C 18.902641 24.464844 21.152578 23.761516 21.267578 23.478516 L 21.927734 18.027344 C 21.582734 18.327344 21.184188 18.696859 20.742188 18.880859 C 20.415187 19.013859 19.689453 19.098781 19.689453 18.550781 C 19.689453 18.250781 20.240547 17.6985 20.560547 17.3125 C 20.645547 17.2145 20.84375 16.972703 20.84375 16.845703 C 20.84375 16.678703 20.481719 16.717281 20.136719 16.988281 C 19.942719 17.144281 19.760375 17.352828 19.609375 17.548828 C 19.349375 17.894828 19.210703 18.193406 19.095703 18.441406 C 18.720703 19.259406 18.847922 18.936984 18.544922 19.708984 C 18.241922 20.475984 18.291469 20.388625 18.230469 20.515625 C 18.176469 20.625625 18.097281 20.718391 17.988281 20.775391 C 17.873281 20.833391 17.716141 20.826812 17.619141 20.757812 C 17.565141 20.722812 17.539062 20.647922 17.539062 20.544922 C 17.539062 20.492922 17.546594 20.440672 17.558594 20.388672 C 17.649594 20.036672 18.030797 19.346109 18.466797 18.412109 C 18.563797 18.199109 18.526672 18.262297 18.513672 18.279297 C 18.138672 18.625297 17.853578 18.792766 17.642578 18.884766 C 17.291578 19.034766 16.855625 19.034438 16.765625 18.648438 C 16.759625 18.625438 16.759906 18.601125 16.753906 18.578125 C 16.039906 19.108125 15.283922 19.252328 15.544922 18.111328 C 15.266922 18.584328 14.7815 18.970703 14.1875 18.970703 C 13.9395 18.970703 13.757969 18.890734 13.667969 18.677734 C 13.528969 18.360734 13.746312 17.817688 13.945312 17.304688 C 14.048312 17.045687 14.188953 16.734094 14.376953 16.371094 C 14.473953 16.175094 14.629937 16.059328 14.835938 16.111328 C 14.871937 16.123328 14.903594 16.135344 14.933594 16.152344 C 15.090594 16.256344 15.030172 16.410406 14.951172 16.566406 C 14.721172 16.998406 14.521672 17.315625 14.388672 17.765625 C 14.334672 17.955625 14.266516 18.285156 14.478516 18.285156 C 14.623516 18.285156 14.762484 18.238484 14.896484 18.146484 C 15.174484 17.950484 15.398359 17.657141 15.568359 17.369141 C 15.689359 17.162141 15.835203 16.891156 15.908203 16.660156 C 15.938203 16.562156 15.975578 16.469813 16.017578 16.382812 C 16.084578 16.238813 16.174031 16.089844 16.332031 16.089844 C 16.411031 16.089844 16.476391 16.118781 16.525391 16.175781 C 16.628391 16.302781 16.605781 16.433266 16.550781 16.572266 C 16.429781 16.895266 16.266813 17.184156 16.132812 17.535156 C 16.053812 17.737156 15.96875 17.995984 15.96875 18.208984 C 15.96875 18.404984 16.192859 18.358344 16.380859 18.277344 C 16.525859 18.214344 16.670969 18.117531 16.792969 18.019531 C 16.865969 17.737531 16.846625 17.799891 18.390625 14.087891 C 18.469625 13.897891 18.614766 13.816406 18.759766 13.816406 C 18.832766 13.816406 18.892125 13.840859 18.953125 13.880859 C 19.056125 13.955859 19.057625 14.115328 19.015625 14.236328 C 18.973625 14.346328 18.978187 14.311797 18.742188 14.841797 C 18.427187 15.538797 18.222359 16.041641 17.943359 16.681641 C 17.828359 16.946641 17.477969 17.770797 17.417969 17.966797 C 17.381969 18.093797 17.338516 18.300781 17.478516 18.300781 C 17.805516 18.300781 18.646953 17.545312 18.876953 17.320312 C 18.888953 17.303313 18.907641 17.297156 18.931641 17.285156 C 18.967641 17.175156 19.003203 17.07275 19.033203 16.96875 C 19.118203 16.74975 19.197469 16.494406 19.355469 16.316406 C 19.403469 16.258406 19.457578 16.224609 19.517578 16.224609 C 19.686578 16.224609 19.771484 16.293078 19.771484 16.455078 C 19.771484 16.518078 19.730078 16.7495 19.705078 16.8125 C 19.790078 16.7265 19.879563 16.640688 19.976562 16.554688 C 20.884563 15.753687 21.53125 16.162406 21.53125 16.566406 C 21.53125 16.992406 20.993266 17.585062 20.697266 17.914062 C 20.600266 18.024062 20.400531 18.225203 20.394531 18.283203 C 20.394531 18.358203 20.448344 18.388672 20.527344 18.388672 C 20.648344 18.388672 20.914719 18.186188 21.011719 18.117188 C 21.314719 17.892187 21.724625 17.546688 22.015625 17.304688 L 22.912109 9.4199219 z M 10.929688 24.03125 L 11.832031 25.496094 L 12.183594 30.072266 C 12.183594 30.585266 13.895953 31 16.001953 31 C 18.107953 31 19.820312 30.585266 19.820312 30.072266 L 20.099609 25.449219 L 20.951172 24.03125 C 18.554172 24.99425 13.423687 25.02825 10.929688 24.03125 z" />
	</symbol>
	<symbol id="wp-icon" viewBox="0 0 42 42">
		<path
			d="M2.26 16c0 5.45 3.13 10.145 7.7 12.348L3.478 10.435C2.725 12.174 2.26 14.03 2.26 16zm23.015-.696c0-1.68-.638-2.9-1.16-3.768-.696-1.16-1.333-2.087-1.333-3.246 0-1.275.986-2.435 2.32-2.435h.174C22.84 3.594 19.594 2.26 16 2.26A13.95 13.95 0 0 0 4.522 8.463h.87c1.45 0 3.652-.174 3.652-.174.754-.058.812 1.043.116 1.16 0 0-.754.116-1.565.116l4.986 14.84 3.014-8.986-2.145-5.855L12 9.45c-.754-.058-.638-1.16.058-1.16 0 0 2.26.174 3.594.174 1.45 0 3.652-.174 3.652-.174.754-.058.812 1.043.116 1.16 0 0-.754.116-1.565.116L22.84 24.35l1.4-4.58c.58-1.913 1.043-3.246 1.043-4.464zm-9.043 1.913L12.116 29.16c1.217.348 2.55.58 3.884.58 1.623 0 3.13-.3 4.58-.754-.058-.058-.058-.116-.116-.174zM28.058 9.45l.116 1.4c0 1.4-.232 2.957-1.043 4.928l-4.174 12.116c4.058-2.377 6.84-6.783 6.84-11.884-.058-2.377-.696-4.58-1.74-6.55zM16 0C7.188 0 0 7.188 0 16s7.188 16 16 16 16-7.188 16-16S24.812 0 16 0zm0 31.304C7.594 31.304.754 24.464.754 16A15.27 15.27 0 0 1 16 .754 15.27 15.27 0 0 1 31.246 16c0 8.464-6.84 15.304-15.246 15.304z" />
	</symbol>
	<symbol id="logo">
		<svg version="1.0"
			width="50px" height="50px" viewBox="0 0 150 150"
			preserveAspectRatio="xMidYMid meet">

			<g transform="translate(0.000000,150.000000) scale(0.100000,-0.100000)"
				fill="#000000" stroke="none">
				<path
					d="M761 1274 c-12 -15 -26 -44 -33 -66 -7 -25 -14 -34 -19 -26 -6 10 -9
						9 -13 -2 -3 -8 -23 -65 -46 -126 -42 -116 -61 -192 -41 -164 18 25 13 -5 -13
						-84 -30 -89 -46 -203 -26 -191 9 6 12 4 8 -7 -3 -8 -9 -45 -13 -82 l-8 -68
						-49 -22 c-27 -12 -46 -24 -43 -28 3 -3 -13 -15 -37 -27 -37 -18 -40 -21 -18
						-22 l25 -1 -27 -11 c-16 -6 -28 -14 -28 -19 0 -10 3 -10 84 7 38 8 71 14 72
						12 2 -1 4 -24 6 -50 2 -26 4 -47 6 -47 1 0 14 24 27 52 14 29 23 43 21 30 -6
						-32 11 -17 24 22 8 25 19 35 47 44 20 6 40 9 45 6 13 -8 198 36 240 57 21 11
						53 19 73 19 20 0 34 4 30 9 -3 6 19 11 52 13 l58 3 -57 28 c-32 16 -72 31 -90
						33 -49 8 -309 -34 -330 -53 -10 -9 -21 -14 -23 -11 -3 3 6 54 21 114 15 60 27
						118 26 129 -3 36 31 180 38 160 7 -21 25 53 40 165 5 41 12 97 16 124 7 46 6
						48 -14 41 -24 -7 -27 1 -12 39 12 33 7 33 -19 0z" />
			</g>
		</svg>
	</symbol>
	<symbol id="themeButton">
		<svg version="1.0" id="Layer_1" xmlns="http://www.w3.org/2000/svg"
			 viewBox="0 0 100 100" enable-background="new 0 0 0 0">
			<g>
				<path fill="#F9EBB2"
					d="M41.15,44H36V25c0-1.104,0.896-2,2-2s2,0.896,2,2c0,0.553,0.447,1,1,1s1-0.447,1-1c0-2.209-1.791-4-4-4
c-1.201,0-2.267,0.541-3,1.381C34.267,21.541,33.201,21,32,21s-2.267,0.541-3,1.381C28.267,21.541,27.201,21,26,21
c-2.209,0-4,1.791-4,4c0,0.553,0.447,1,1,1s1-0.447,1-1c0-1.104,0.896-2,2-2s2,0.896,2,2v19h-5.15C15.271,40.525,10,32.883,10,24
c0-12.15,9.85-22,22-22s22,9.85,22,22C54,32.883,48.729,40.527,41.15,44z" />
				<g>
					<path fill="#394240"
						d="M32,0C18.745,0,8,10.746,8,24c0,9.684,5.743,18.006,14,21.801V60c0,2.211,1.789,4,4,4h12
	c2.211,0,4-1.789,4-4V45.801C50.257,42.006,56,33.684,56,24C56,10.746,45.255,0,32,0z M40,60c0,1.105-0.896,2-2,2H26
	c-1.104,0-2-0.895-2-2v-2h16V60z M40,56H24v-4h16V56z M40,50H24v-4h16V50z M30,44V25c0-1.104,0.896-2,2-2s2,0.896,2,2v19H30z
	 M41.15,44H36V25c0-1.104,0.896-2,2-2s2,0.896,2,2c0,0.553,0.447,1,1,1s1-0.447,1-1c0-2.209-1.791-4-4-4
	c-1.201,0-2.267,0.541-3,1.381C34.267,21.541,33.201,21,32,21s-2.267,0.541-3,1.381C28.267,21.541,27.201,21,26,21
	c-2.209,0-4,1.791-4,4c0,0.553,0.447,1,1,1s1-0.447,1-1c0-1.104,0.896-2,2-2s2,0.896,2,2v19h-5.15C15.271,40.525,10,32.883,10,24
	c0-12.15,9.85-22,22-22s22,9.85,22,22C54,32.883,48.729,40.527,41.15,44z" />
					<path fill="#394240"
						d="M32,6c-0.553,0-1,0.447-1,1s0.447,1,1,1c4.418,0,8.418,1.791,11.313,4.688c0,0,0.944,1.055,1.687,0.312
	s-0.271-1.729-0.271-1.729C41.471,8.016,36.971,6,32,6z" />
				</g>
				<g>
					<path fill="#B4CCB9"
						d="M24,60c0,1.105,0.896,2,2,2h12c1.104,0,2-0.895,2-2v-2H24V60z" />
					<rect x="24" y="52" fill="#B4CCB9" width="16" height="4" />
					<rect x="24" y="46" fill="#B4CCB9" width="16" height="4" />
				</g>
				<path fill="#F9EBB2" d="M34,44h-4V25c0-1.104,0.896-2,2-2s2,0.896,2,2V44z" />
			</g>
		</svg>
	</symbol>
</svg>